<svg id="Layer_1" data-name="Layer 1" xmlns="http://www.w3.org/2000/svg" viewBox="0 0 361.27 120"><defs><style>.cls-1{fill:#e20010;}.cls-2{fill:#d10010;}</style></defs><g id="layer1"><g id="g3562"><g id="g3528"><path id="path3530" class="cls-1" d="M392.15,327.26A13.52,13.52,0,0,1,385,329c-5.52,0-8-4.24-7.9-9.17.09-4.09,2.63-8.72,9.53-8.72h5.5ZM386.47,282c-6.55,0-12.44,1.85-18.5,4.86l-1.55.8,3.69,8.23,2.08-1c4.29-1.92,8.86-3.2,13-3,5,.21,7,2.49,7,7.24v2.8H384c-13.07,0-21.2,6.93-21.44,17.69,0,10.22,8.53,19,20.38,19,9.56,0,17.66-3.1,23.12-8.57V300.82c0-14.2-10.14-18.87-19.62-18.87ZM580.63,329v8.63a33.6,33.6,0,0,1-5.24.55c-11,0-17.5-5.16-17.5-17.22V270.12l13.76-2.34v54.08c0,4.17,1.2,6.68,6.92,7.12C579.34,329,580.63,329,580.63,329Zm-60.35-25.67c.23-5.3,2.44-10.74,7.86-10.74,6.1,0,7,6.62,7,10.74Zm10.82,25.61c-3.76,0-6.3-1.24-8-3-2.47-2.67-3.57-8.15-3.27-14h29.59v-1.36c-.26-19.38-6.86-28.2-21.32-28.2-16.14,0-22.43,14.84-22.54,28.79-.1,8.83,3.23,17.71,9.31,22.77,3.71,3.08,8.85,4.78,14.8,4.78a33.32,33.32,0,0,0,9.73-1.44,39.06,39.06,0,0,0,10.32-5l-3.87-8A26.51,26.51,0,0,1,531.1,328.94Zm-30.33.11v8.51a30.75,30.75,0,0,1-5.23.5c-11.21,0-17.9-5.41-17.9-16.85V270.12l14.07-2.26V283h9.06V293h-9.06v28.75c0,3.76,1.17,7,7.07,7.22.8,0,1.84,0,2,0Zm-84.4-43.89,13.73-2.24v54.66H416.37Zm7-24.08a8.59,8.59,0,0,1,6.22,2.61,8.44,8.44,0,0,1,2.37,6.17,8.72,8.72,0,1,1-17.43-.06A8.79,8.79,0,0,1,423.38,261.08Zm50.56,22.67-3.87,8.68a18,18,0,0,0-5.61-.57c-3.69.15-7.56,1.71-9.39,3.49v42.27h-14v-44.9c8.33-8.87,17.59-10.63,23.61-10.63A23.8,23.8,0,0,1,473.94,283.75Z" transform="translate(-219.37 -240)"/></g><g id="g3532"><path id="path3534" class="cls-1" d="M298.81,240v.15h-1.22v.15h-1.36v.16H295v.15H294v.15h-.76v.15h-.76v.15h-.76v.16h-.76v.15h-.76v.15h-.76v.15h-.45v.15h-.61V242h-.61v.16h-.61v.15h-.45v.15h-.61v.15h-.61v.15h-.61v.16h-.45V243h-.46v.15h-.45v.15H283v.15h-.45v.16h-.46v.15h-.46V244h-.45v.15h-.46v.15h-.45v.16h-.46v.15h-.45v.15h-.46v.15h-.46V245h-.3v.15h-.46v.16h-.3v.15h-.45v.15h-.31v.15h-.45v.15h-.46v.16h-.3v.15H275v.15h-.3v.15h-.46v.15h-.3v.16h-.46V247h-.3v.15h-.31v.15h-.3v.15h-.46v.15h-.3v.16h-.3v.15h-.31v.15h-.3v.15h-.46v.15h-.3v.16h-.3v.15h-.31v.15h-.3V249h-.46v.15h-.3v.16h-.31v.15h-.3v.15h-.3v.15h-.31v.15h-.3V250h-.3v.15h-.31v.15H266v.15h-.31v.15h-.3v.15h-.3v.16h-.31v.15h-.3v.15h-.3v.15h-.31v.15h-.15v.16h-.3v.15h-.31V252h-.3v.15h-.31v.15h-.3v.16h-.3v.15h-.15v.15h-.31v.15h-.3v.15h-.31v.15h-.15v.16h-.3v.15h-.31v.15h-.3v.15h-.15V254h-.31v.16H259v.15h-.3v.15h-.31v.15h-.15v.15H258v.16h-.31V255h-.3v.15h-.15v.15h-.31v.15h-.15v.16h-.3v.15h-.15V256H256v.15h-.3v.15h-.15v.16h-.31v.15h-.15v.15h-.3v.15h-.31V257h-.15v.15H254v.16h-.15v.15h-.31v.15h-.15v.15h-.3v.15h-.31v.16h-.15v.15h-.3v.15h-.15v.15h-.31v.15h-.15v.16h-.3V259h-.16v.15h-.15v.15h-.3v.15h-.15v.15h-.31v.16h-.15v.15h-.3v.15h-.15v.15h-.16v.15h-.3v.16h-.15v.15h-.31v.15h-.15V261h-.3v.15h-.15v.16h-.16v.15h-.3v.15h-.15v.15h-.31v.15h-.15V262H247v.15h-.3v.15h-.15v.15h-.16v.15h-.3v.16H246v.15h-.15v.15h-.16v.15h-.3v.15h-.15v.15H245v.16h-.31v.15h-.15V264h-.15v.15h-.15v.15H244v.16h-.15v.15h-.15v.15h-.3v.15h-.16v.15h-.15v.15h-.3v.16h-.15v.15h-.16v.15h-.15v.15h-.15V266H242v.16h-.31v.15h-.15v.15h-.15v.15h-.15v.15h-.15v.16h-.15V267h-.31v.15h-.15v.15h-.15v.15h-.15v.16H240v.15h-.15V268h-.3v.15h-.15v.15h-.16v.16h-.15v.15H239v.15h-.15v.15h-.31V269h-.15v.15h-.15v.16h-.15v.15h-.15v.15h-.15v.15h-.16v.15h-.15v.16h-.15v.15h-.15v.15H237v.15h-.16v.15h-.15v.16h-.15V271h-.15v.15h-.15v.15h-.16v.15h-.15v.15h-.15v.16h-.15v.15h-.15v.15h-.31v.15H235v.15h-.15v.16h-.15v.15h-.15v.15h-.16V273h-.15v.15h-.15v.16H234v.15h-.15v.15h-.16v.3h-.15V274h-.15v.15h-.15v.15H233v.15h-.16v.15h-.15v.16h-.15v.15h-.15v.15h-.15v.15h-.16v.3H232v.16h-.15v.15h-.15V276h-.15v.15h-.15v.15h-.16v.16h-.15v.15h-.15v.15h-.15v.3h-.15v.15h-.16v.16h-.15v.15h-.15v.15H230v.15h-.15v.31h-.16v.15h-.15v.15h-.15v.3h-.15v.16h-.15V279h-.15v.15h-.16v.3h-.15v.16h-.15v.15h-.15v.3h-.15v.15H228v.16h-.15v.15h-.15v.3h-.15V281h-.15v.15h-.16v.31h-.15v.15H227v.15h-.15v.31h-.15v.15h-.16v.3h-.15v.15h-.15v.16h-.15v.3h-.15v.15h-.15v.3h-.16v.16h-.15v.3h-.15v.3h-.15v.16H225v.3h-.16V285h-.15v.31h-.15v.3h-.15v.15h-.15V286h-.16v.15h-.15v.3h-.15v.31h-.15v.3h-.15v.3h-.16v.15h-.15v.31H223v.3h-.15v.31h-.15v.3h-.15v.3h-.16v.31h-.15v.3h-.15v.3H222v.31h-.15v.45h-.16V291h-.15v.3h-.15v.46h-.15v.3H221v.46h-.16V293h-.15v.31h-.15v.6h-.15v.46h-.15v.46h-.16v.6H220v.76h-.15v.61h-.15v1.06h-.15v1.83h-.15v1.67h.15v1.52h.15v.76h.15v.6H220v.61h.15v.46h.16v.45h.15v.46h.15v.3h.15v.31h.15v.3H221v.3h.15v.31h.15v.3h.15v.3h.15v.16h.16v.3H222V309h.15v.31h.15v.15h.15v.3h.16v.15h.15V310h.15v.15H223v.15h.15v.15h.15v.15h.16v.16h.15v.15h.15v.15h.15v.15h.15v.15h.16v.15h.15v.16h.15v.15h.15V312h.15v.15H225v.15h.15v.16h.15v.15h.3v.15h.16v.15h.3v.15h.15v.15h.3v.16h.16v.15h.3v.15h.15v.15h.31V314h.15v.16h.3v.15H228v.15h.31v.15h.3v.15h.46v.16h.3V315h.3v.15h.46v.15h.3v.15h.31v.16h.61v.15h.75V316h.76v.15h.76v.15h3.8v-.15h1.06V316h.92v-.15h.6v-.15h.61v-.16h.46v-.15h.45v-.15h.61V315h.46v-.15h.3v-.16h.46v-.15h.3v-.15h.3v-.15h.46v-.15h.3V314H245v-.15h.3v-.15h.3v-.15H246v-.15h.3v-.16h.31v-.15h.3v-.15h.3v-.15h.31v-.15h.3v-.15h.3v-.16h.16v-.15h.3V312h.15v-.15H249v-.15h.3v-.16h.15v-.15h.31v-.15h.3v-.15h.15v-.15h.3v-.15h.16v-.16h.3v-.15h.15v-.15h.31v-.15h.15V310h.3v-.16H252v-.15h.31v-.15h.15v-.15h.3v-.15h.16v-.16h.3V309h.15v-.15h.15v-.15h.31v-.15H254v-.16h.15v-.15h.3v-.15h.16v-.15h.3v-.15h.15v-.16h.15v-.15h.31v-.15h.15v-.15h.15V307h.3v-.15h.16v-.16h.15v-.15h.3v-.15h.15v-.15H257v-.15h.3v-.16h.15v-.15h.15v-.15H258v-.15h.15v-.15h.15v-.16h.15V305h.31v-.15h.15v-.15H259v-.15h.3v-.15h.16v-.16h.15v-.15h.3V304h.15v-.15h.16v-.15h.15v-.16h.3v-.15h.15v-.15H261V303h.3v-.15h.15v-.16h.15v-.15h.31v-.15h.15v-.15h.15v-.15h.3V302h.16v-.15h.15v-.15h.3v-.15h.15v-.15h.16v-.16h.3v-.15h.15v-.15h.31v-.15h.15v-.15h.15v-.15h.3v-.16h.16v-.15h.3V300h.15v-.15h.3v-.15h.16v-.16h.3v-.15h.15v-.15h.31v-.15h.15v-.15h.15v-.15h.3v-.16h.16v-.15h.3v-.15h.15v-.15h.3V298h.16v-.16h.3v-.15h.15v-.15H269v-.15h.15v-.15h.3v-.16h.15V297H270v-.15h.15v-.15h.3v-.15h.16v-.16h.3v-.15H271v-.15h.15v-.15h.31v-.15h.15v-.16h.3v-.15h.15v-.15h.31v-.15h.15V295h.3v-.15H273v-.16h.3v-.15h.15v-.15h.31v-.15h.15v-.15h.3v-.16h.15v-.15h.31v-.15h.15v-.15h.3v-.15h.15v-.16h.31V293h.15v-.15h.3v-.15h.16v-.15h.3v-.15h.15v-.16h.31v-.15h.15V292h.3v-.15h.15v-.15h.31v-.16H278v-.15h.3v-.15h.15V291h.31v-.15h.15v-.16h.3v-.15h.16v-.15h.3v-.15h.3v-.15h.15V290h.31v-.15h.15v-.15h.3v-.15H281v-.15h.3v-.16h.15v-.15h.31v-.15H282v-.15h.3v-.15h.31v-.15h.15v-.16h.3v-.15h.15V288h.31v-.15h.3v-.15h.15v-.16h.31v-.15h.15v-.15h.3v-.15h.15v-.15h.31v-.15h.3v-.16h.15v-.15h.31v-.15h.3v-.15h.15V286h.31v-.16h.3v-.15h.15v-.15h.31v-.15h.3v-.15h.15v-.16h.31V285h.3v-.15h.15v-.15h.31v-.15h.3v-.16h.15v-.15h.3v-.15H290v-.15h.3v-.15h.15v-.16h.31v-.15h.3v-.15h.31v-.15h.15V283h.3v-.15h.3v-.16h.31v-.15h.3v-.15h.15v-.15h.31v-.15h.3v-.16h.31v-.15h.3v-.15h.3v-.15h.31v-.15h.3v-.16h.3V281h.31v-.15h.3v-.15h.31v-.15h.3v-.15h.15v-.16h.46v-.15h.3V280h.31v-.15h.3v-.15h.3v-.16h.46v-.15h.3v-.15h.31V279h.3v-.15h.3v-.16h.46v-.15h.3v-.15h.46v-.15h.3v-.15H302V278h.45v-.15h.31v-.15h.45v-.15h.31v-.15H304v-.16h.61v-.15H305v-.15h.6v-.15h.46v-.15h.61v-.15h.6v-.16h.76v-.15H309V276h.76v-.15h2.58v-.15h.3v.15H314V276h1.21v.15h.46v.15h.45v.16h.46v.15h.3v.15h.46v.15h.3v.15H318v.15h.15v.16h.3v.15h.31v.15h.15v.15h.3V278h.15v.16h.31v.15h.15v.15h.15v.15h.15v.15h.16v.16h.15V279h.15v.15h.15v.15h.15v.15H321v.16h.15v.15h.15v.3h.15v.15h.15v.16h.16v.3h.15v.15h.15v.3h.15v.16h.15v.3h.15v.3h.16v.16h.15v.3H323v.3h.15V283h.15v.3h.16v.46h.15v.3h.15v.46h.15v.3H324v.46h.16v.45h.15v.61h.15v.46h.15v.6h.15v.91h.16v.76h.15v1.67h.15v3.8h-.15v1.22h-.15v1.36h-.16v.76h-.15v.76h-.15v.61h-.15V300h-.15v.61H324v.6h-.15v.46h-.15v.46h-.15v.45h-.15v.61h-.16v.46h-.15v.45H323v.46h-.15v.3h-.15v.46h-.16v.3h-.15v.46h-.15v.3h-.15v.46h-.15v.3h-.15v.45h-.16v.31h-.15v.3h-.15v.31h-.15v.3H321v.46h-.16v.3h-.15v.3h-.15v.31h-.15v.3h-.15v.15h-.16v.31h-.15v.3h-.15v.3h-.15v.31h-.15V312h-.16v.3h-.15v.31H319v.15h-.15v.3h-.15v.31h-.15v.15h-.16v.3h-.15v.31h-.15v.15H318v.3h-.15v.15h-.16V315h-.15v.15h-.15v.3h-.15v.16H317v.3h-.16v.15h-.15v.31h-.15v.15h-.15v.3h-.15V317h-.16v.15H316v.31h-.15v.15h-.15v.15h-.15v.31h-.15v.15h-.16v.15h-.15v.3h-.15v.16h-.15v.3h-.15v.15h-.16v.15h-.15v.15h-.15v.31H314v.15h-.15v.15h-.16v.15h-.15v.31h-.15v.15h-.15V321h-.15v.15h-.15v.31h-.16v.15h-.15v.15h-.15v.15h-.15V322h-.15v.3H312v.15h-.15v.15h-.15v.16h-.15v.15h-.15v.3h-.16v.15h-.15v.15H311v.16h-.15v.15h-.15V324h-.16v.15h-.15v.15h-.15v.31h-.15v.15h-.15v.15h-.15v.15h-.16v.15h-.15v.16h-.15v.15h-.15v.15H309v.15h-.16v.31h-.15v.15h-.15v.15h-.15v.15h-.15v.15h-.16v.16h-.15V327h-.15v.15h-.15v.15h-.15v.15h-.16v.16h-.15v.15H307V328h-.15v.15h-.15v.15h-.15v.16h-.16v.15h-.15v.15h-.15v.15H306V329h-.15v.15h-.16v.16h-.15v.15h-.15v.15h-.15v.15H305v.15h-.16v.16h-.15v.15h-.15v.15h-.15v.15h-.15v.15h-.16v.16H304V331h-.15v.15h-.15v.15h-.15v.15h-.15v.15h-.16v.16h-.15v.15h-.15v.15h-.15v.15h-.15v.15h-.16v.16h-.3v.15H302v.15h-.15V333h-.16v.15h-.15v.16h-.15v.15h-.15v.15h-.15v.15h-.15v.15h-.16V334h-.3v.15h-.15v.15h-.15v.15H300v.15h-.15v.16h-.15v.15h-.15v.15h-.15v.15h-.31v.15H299v.15h-.15v.16h-.15v.15h-.16V336h-.15v.15h-.15v.15h-.3v.16h-.15v.15h-.16v.15h-.15v.15h-.15v.15H297v.15h-.16v.16h-.15v.15h-.15v.15h-.15v.15h-.31V338h-.15v.16h-.15v.15h-.15v.15h-.15v.15h-.31v.15H295v.16h-.15V339h-.15v.15h-.31v.15h-.15v.15h-.15v.16H294v.15h-.31V340h-.15v.15h-.15v.15h-.15v.16h-.31v.15h-.15v.15h-.15v.15h-.15V341h-.31v.15H292v.16h-.15v.15h-.3v.15h-.15v.15h-.16v.15h-.3v.16h-.15v.15h-.15v.15h-.31v.15h-.15v.15H290v.16h-.31V343h-.15v.15h-.15v.15h-.3v.15h-.15v.15h-.16v.16h-.3v.15h-.15v.15H288v.15h-.15v.15h-.15v.16h-.3v.15h-.16v.15H287V345h-.15v.15h-.31v.16h-.15v.15h-.15v.15h-.3v.15h-.15v.15h-.31V346h-.15v.15H285v.15h-.16v.15h-.3v.15h-.15v.16h-.31v.15h-.15v.15h-.3v.15h-.15v.15h-.31v.15H283v.16h-.3v.15h-.31V348h-.15v.15H282v.15h-.15v.16h-.31v.15h-.3v.15H281v.15h-.31v.15h-.15v.15h-.3v.16H280v.15h-.3v.15h-.15v.15h-.31V350h-.3v.16h-.15v.15h-.31v.15h-.3v.15h-.3v.15h-.16v.16h-.3V351h-.3v.15h-.31v.15h-.3v.15h-.3v.16H276v.15h-.3V352h-.3v.15h-.31v.15h-.3v.16h-.31v.15h-.3v.15h-.3v.15h-.31V353h-.45v.15h-.31v.16h-.3v.15h-.3v.15h-.31v.15h-.45v.15h-.31v.16h-.45v.15h-.31v.15H270v.15h-.46v.15h-.3v.16h-.61V355h-.46v.15h-.45v.15h-.61v.15h-.76v.15h-1.06v.16h-1.52v-.16h-.61v-.15h-.45v-.15h-.31v-.15h-.3V355h-.15v-.15h-.15v-.16h-.16v-.15h-.15v-.3h-.15v-.31h-.15v-.3H261v-.46h-.16v-1.51H261v-.76h.15v-.46h.15V350h.15v-.3h.15v-.3h.16v-.31h.15v-.3h.15v-.3h.15v-.31h.15V348h.15v-.3h.16v-.31h.15v-.15H263v-.3h.15v-.15h.15v-.31h.16v-.15h.15V346h.15v-.16h.15v-.15H264v-.3h.16v-.15h.15v-.16h.15v-.3h.15v-.15h.15v-.15h.16v-.31h.15v-.15h.15v-.15h.15v-.15h.15v-.16h.15v-.3h.16v-.15H266V343h.15v-.15h.15v-.16h.15v-.15h.16v-.3h.15v-.15h.15v-.16h.15v-.15h.15v-.15h.16v-.15h.15v-.15h.15v-.16h.15V341H268v-.15h.15v-.3h.16v-.15h.15v-.16h.15v-.15h.15V340h.15v-.15H269v-.15h.15v-.16h.15v-.15h.15v-.15h.15V339h.16v-.15H270v-.16h.15v-.15h.15v-.15h.15v-.15h.16v-.15h.15V338h.15v-.15H271v-.15h.15v-.15h.15v-.15h.16v-.16h.15v-.15h.15v-.15h.15v-.15h.15v-.15h.16v-.15h.15v-.16h.15v-.15h.15V336h.15v-.15H273v-.15h.15v-.16h.15v-.15h.15v-.15h.15v-.15h.16v-.15h.15v-.15h.15v-.16h.15v-.15h.15v-.15h.15v-.15h.16V334h.15v-.16H275v-.15h.15v-.15h.15v-.15h.16v-.15h.15v-.16h.15V333h.15v-.15H276v-.15h.16v-.15h.3v-.16h.15v-.3h.15v-.15h.16v-.15h.15v-.16h.15v-.15h.15v-.15h.15v-.15h.15V331h.16v-.15H278v-.16h.15v-.15h.15v-.3h.15v-.15h.16v-.16h.15v-.15h.15v-.15h.15v-.15h.15v-.31h.16V329h.15v-.15h.15v-.3h.15v-.15H280v-.16h.15v-.15h.16v-.3h.15v-.15h.15v-.31h.15v-.15h.15v-.3H281v-.31h.15v-.15h.15v-.3h.15v-.31h.15v-.15h.16v-.46H282v-.45h.15v-.46h.15V324h.15v-2.28h-.15v-.61h-.15v-.45H282v-.15h-.15v-.31h-.16v-.15h-.15v-.3h-.15v-.16h-.15v-.15H281v-.15h-.16v-.15h-.15V319h-.15v-.15h-.15v-.16h-.15v-.15H280v-.15h-.15v-.15h-.3v-.15h-.15v-.16h-.31v-.15h-.3v-.15h-.31v-.15h-.3v-.15h-.46v-.16h-.45V317h-.3v-.15h-.46v-.15h-.76v-.15h-.61v-.15h-.91v-.16h-1.37v-.15h-.15v.15H270v.16H269v.15h-.76v.15h-.46v.15h-.45V317h-.61v.15h-.46v.16H266v.15h-.31v.15h-.3v.15h-.45v.15h-.31v.16h-.3v.15H264v.15h-.3v.15h-.15v.15h-.31v.16h-.15V319h-.3v.15h-.15v.15h-.31v.15h-.15v.15h-.15v.16h-.3v.15h-.16v.15h-.3v.15h-.15v.15H261v.16h-.16v.15h-.15v.15h-.15V321h-.3v.15h-.16v.16h-.15v.15h-.15v.15h-.15v.15h-.15v.15h-.16V322h-.15v.15H259v.15h-.15v.15h-.15v.15h-.15v.16h-.16v.15h-.15v.15h-.15v.15H258v.3h-.15v.16h-.16v.15h-.15V324h-.15v.15h-.15v.31H257v.15h-.16v.15h-.15v.15h-.15v.15h-.15v.15h-.15v.31h-.16v.15H256v.3h-.15v.16h-.15v.3h-.15v.15h-.15v.31h-.16V327h-.15v.3h-.15v.15h-.15v.31h-.15V328h-.16v.3h-.15v.16h-.15v.3H254v.15h-.15v.3h-.16v.31h-.15v.3h-.15v.31h-.15v.3h-.15v.3h-.15V331h-.16v.15h-.15v.3h-.15v.31h-.15v.3h-.15v.3H252v.31h-.15v.3h-.15v.31h-.15v.3h-.15v.3h-.16v.46h-.15v.3H251v.31h-.15v.45h-.15v.31h-.16v.3h-.15v.46h-.15v.3h-.15v.3h-.15v.46h-.15v.3h-.16v.46h-.15v.45h-.15v.46h-.15v.46H249v.6h-.16v.46h-.15v.45h-.15v.61h-.15v1.07h-.15v1.06h-.16v1.21h-.15v.16h.15v3h.16v.61h.15v.61h.15v.76h.15v.61h.15v.3H249v.3h.15V352h.15v.3h.15v.31h.15v.3h.16v.3h.15v.31h.15v.15h.15v.3h.15v.16h.15v.3h.16v.15h.15v.15H251V355h.15v.15h.15v.15h.16v.3h.3v.16h.15v.15H252v.15h.16v.15h.15v.15h.15v.16h.15v.15h.15v.15h.16V357h.15v.15h.15v.16h.3v.15h.15v.15H254v.15h.15v.15h.3V358h.16v.15h.3v.15h.15v.15h.31v.15h.3v.16h.3v.15h.31v.15h.45v.15h.46v.15h.45v.15h.76v.16h.91v.15h1.52V360h2.43v-.15h1.83v-.15h1.06v-.16h.91v-.15h.76v-.15h.76v-.15h.61v-.15h.61v-.15h.6v-.16h.46v-.15h.45v-.15h.61v-.15h.46V358h.45v-.16h.46v-.15h.46v-.15h.3v-.15h.45v-.15H275v-.16h.3V357h.46v-.15h.3v-.15h.46v-.15h.3v-.16h.46v-.15h.3v-.15h.31v-.15h.3v-.15h.46v-.16h.3v-.15h.3v-.15h.31v-.15h.3V355h.3v-.15h.31v-.16h.45v-.15h.31v-.15h.3v-.15h.31v-.15h.3v-.16h.15v-.15h.31v-.15h.3v-.15h.3v-.15h.31v-.16h.3V353h.3v-.15h.31v-.15h.15v-.15h.3v-.15h.31v-.16h.3v-.15h.31V352h.15v-.15h.3v-.15h.3v-.16h.31v-.15H287v-.15h.3V351h.31v-.15h.15v-.16h.3v-.15h.31v-.15h.15v-.15h.3v-.15h.31V350h.15v-.15h.3v-.15h.15v-.15H290v-.15h.3v-.16h.15v-.15h.31v-.15h.15v-.15h.3v-.15h.31v-.15h.15v-.16h.3v-.15h.15V348h.31v-.15h.15v-.15h.3v-.16H293v-.15h.3v-.15h.15v-.15h.31v-.15H294v-.15h.3v-.16h.15v-.15h.31v-.15h.15v-.15H295V346h.3v-.16h.16v-.15h.3v-.15h.15v-.15h.31v-.15h.15v-.16h.3V345h.15v-.15H297v-.15h.3v-.15h.15v-.16h.15v-.15h.31v-.15h.15v-.15h.3v-.15h.15v-.16h.16v-.15h.3v-.15h.15v-.15h.15V343h.31v-.15h.15v-.16h.3v-.15h.16v-.15h.15v-.15h.3v-.15h.15v-.16h.16v-.15h.3v-.15h.15v-.15h.15v-.15h.15v-.16H302V341h.15v-.15h.15v-.15h.31v-.15h.15v-.15h.15v-.16h.3v-.15h.16V340h.15v-.15h.15v-.15h.3v-.16h.15v-.15h.16v-.15h.3V339h.15v-.15h.15v-.16H305v-.15h.3v-.15h.15v-.15h.15v-.15h.16V338h.3v-.15h.15v-.15h.15v-.15h.16v-.15h.3v-.16H307v-.15h.15v-.15h.15v-.15h.16v-.15h.3v-.15h.15v-.16h.15v-.15h.16V336h.3v-.15h.15v-.15h.15v-.16H309v-.15h.15v-.15h.3v-.15h.15v-.15h.16v-.15h.15v-.16h.15v-.15h.3v-.15h.15v-.15h.16V334h.15v-.16H311v-.15h.15v-.15h.31v-.15h.15v-.15h.15v-.16h.15V333H312v-.15h.16v-.15h.3v-.15h.15v-.16h.15v-.15h.16v-.15h.15v-.15h.15v-.15h.15v-.16h.3v-.15h.16v-.15H314v-.15h.15V331h.15v-.15h.15v-.16h.16v-.15h.15v-.15h.15v-.15h.3v-.15h.16v-.16h.15v-.15h.15v-.15h.15v-.15H316v-.15h.15v-.16h.16V329h.15v-.15h.15v-.15h.15v-.15h.15v-.15H317v-.16h.15v-.15h.15V328h.15v-.15h.15v-.15h.16v-.16H318v-.15h.15v-.15h.15V327h.15v-.15h.16v-.16h.15v-.15h.15v-.15H319v-.15h.15v-.15h.15V326h.16v-.15h.15v-.15h.15v-.15h.15v-.15h.15v-.16h.16v-.15h.15v-.15h.15v-.15h.15v-.3h.15v-.16H321v-.15h.15V324h.15v-.15h.15v-.15h.15v-.16h.16v-.15h.15v-.15h.15v-.15h.15v-.3h.15v-.16h.15v-.15h.16v-.15h.15v-.15H323V322h.15v-.31h.15v-.15h.16v-.15h.15v-.15h.15v-.16h.15V321H324v-.3h.16v-.15h.15v-.16h.15v-.15h.15v-.15h.15v-.3h.16v-.16h.15v-.15h.15v-.3h.15V319h.15v-.15h.15v-.16h.16v-.3H326v-.15h.15v-.15h.15v-.16h.15v-.3h.16v-.15h.15v-.15h.15V317h.15v-.15h.15v-.15h.16v-.3h.15v-.16h.15v-.15h.15v-.3H328v-.15h.15v-.31h.16v-.15h.15V315h.15v-.31h.15v-.15h.15v-.3H329v-.15h.15V314h.15v-.3h.15v-.15h.15v-.31h.16v-.15H330v-.3h.15v-.15h.15v-.31h.15v-.15h.16v-.3h.15v-.15h.15v-.31H331v-.15h.15v-.3h.15v-.31h.16v-.15h.15v-.3h.15V310h.15v-.31h.15v-.3h.16v-.15h.15V309h.15v-.3h.15v-.15h.15v-.31H333v-.3h.15v-.15h.15v-.31h.15v-.3h.15v-.3h.16v-.16h.15v-.3h.15v-.3h.15v-.31h.15v-.3h.15v-.31h.16v-.3h.15v-.15H335v-.3h.15v-.31h.15v-.3h.16v-.31h.15v-.3h.15v-.3h.15v-.31H336v-.3h.16V302h.15v-.45h.15v-.31h.15v-.3h.15v-.3h.16v-.31h.15V300h.15v-.3h.15v-.46h.15v-.3h.15v-.46h.16v-.3H338v-.46h.15v-.3h.15V297h.15v-.3h.16v-.46h.15v-.3h.15v-.46h.15V295h.15v-.46h.16v-.45h.15v-.46h.15v-.46h.15v-.45H340v-.46h.15v-.45h.16v-.61h.15v-.61h.15v-.45h.15v-.61h.15v-.61H341v-.61h.15v-.76h.15v-.75h.15V286h.15v-.76h.16v-.92H342v-1.21h.15v-1.22h.15v-2h.15v-4.71h-.15v-2.89h-.15v-1.21H342v-.91h-.15v-.91h-.16v-.91h-.15v-.92h-.15v-.76h-.15v-.45H341v-.46h-.16v-.61h-.15v-.45h-.15v-.46h-.15v-.6h-.15v-.46h-.16v-.45H340v-.46h-.15V262h-.15v-.31h-.15v-.45h-.15V261h-.16v-.3h-.15v-.31h-.15v-.45h-.15v-.31h-.15v-.3h-.16V259h-.15v-.31h-.15v-.3H338v-.3h-.15v-.16h-.16v-.3h-.15v-.15h-.15v-.31h-.15v-.3h-.15v-.15h-.15v-.3h-.16v-.31h-.15V256h-.15v-.3h-.15v-.16h-.15v-.3H336V255h-.15v-.15h-.15v-.31h-.15v-.15h-.15v-.15h-.16v-.15h-.15v-.31H335v-.15h-.15v-.15h-.15v-.15h-.16v-.31h-.15v-.15h-.15v-.15h-.15v-.15h-.15v-.15h-.15v-.31h-.16V252h-.15v-.15h-.15v-.15h-.15v-.16H333v-.15h-.16v-.15h-.3v-.15h-.15v-.15h-.15v-.16h-.16v-.15h-.15v-.15h-.15v-.15h-.15v-.15h-.15V250h-.16v-.16h-.15v-.15H331v-.15h-.15v-.15h-.15v-.15h-.31v-.16h-.15V249h-.15v-.15h-.3v-.15h-.16v-.15h-.15v-.16h-.3v-.15H329v-.15h-.16v-.15h-.3v-.15h-.15v-.16h-.15v-.15h-.16v-.15h-.3v-.15h-.3V247h-.15v-.15h-.31v-.16h-.3v-.15h-.15v-.15h-.31v-.15h-.15v-.15h-.3v-.16h-.31v-.15h-.15v-.15h-.3v-.15h-.31v-.15h-.3v-.16h-.3V245h-.31v-.15h-.3v-.15h-.31v-.15H323v-.15h-.3v-.16h-.31v-.15h-.3V244h-.3v-.15h-.46v-.15H321v-.16h-.46v-.15h-.3v-.15h-.46V243h-.46v-.15H319v-.16h-.45v-.15h-.46v-.15h-.46v-.15h-.45v-.15h-.61V242h-.46v-.15h-.45v-.15h-.61v-.15h-.61v-.15h-.6v-.15h-.76v-.16h-.61v-.15h-.76v-.15h-.91v-.15h-.91v-.15H309v-.16h-1.37v-.15h-1.37V240Z" transform="translate(-219.37 -240)"/></g><g id="g3536"><path id="path3538" class="cls-2" d="M261.59,349.06v.31h.16v-.31Zm-.15.31v.3h.15v-.3Zm-.15.3v.3h.15v-.3Zm-.15.46v.3h.15v-.3Zm-.15.45v.31h.15v-.31Zm-.16.76v.31H261v-.31Z" transform="translate(-219.37 -240)"/></g><g id="g3540"><path id="path3542" class="cls-2" d="M261.75,348.76v.3h.15v-.3Z" transform="translate(-219.37 -240)"/></g><g id="g3544"><path id="path3546" class="cls-2" d="M262.81,346.79v.3H263v-.3Z" transform="translate(-219.37 -240)"/></g><g id="g3548"><path id="path3550" class="cls-2" d="M262.81,346.94v.15h-.15v.15h-.16v.3h-.15v.31h-.15V348h-.15v.3h-.15v.31h-.15v.3h.15v-.15h.15v-.3h.15v-.31h.15V348h.15v-.3h.16v-.31h.15v-.15H263v-.3Z" transform="translate(-219.37 -240)"/></g><g id="g3552"><path id="path3554" class="cls-2" d="M261.59,348.91v.3h.16v-.15h.15v-.15Z" transform="translate(-219.37 -240)"/></g></g></g></svg>