<svg id="Layer_1" data-name="Layer 1" xmlns="http://www.w3.org/2000/svg" viewBox="0 0 150.38 131.5"><defs><style>.cls-1{fill:#fff;}.cls-2{fill:#f2f2f2;}</style></defs><path class="cls-1" d="M518.07,285.67,464.75,397.34S457.76,416,442.9,416H399l54.4-112.84s9.61-19.78,25.35-18.62S518.07,285.67,518.07,285.67Z" transform="translate(-398.99 -284.45)"/><path class="cls-2" d="M532.42,348.66c-4.37-7-8.61-15.18-14.16-21.27-5.59,9.21-10.29,19.49-15.73,28.95-8.26,14.37-17,32.37-4.65,47,9.44,11.25,26.43,13.28,38.64,5.46a27.65,27.65,0,0,0,11.85-15.27C553,377.37,540.45,361.5,532.42,348.66Zm4.26,44.2a18.12,18.12,0,1,1-6.7-24.73A18.11,18.11,0,0,1,536.68,392.86Z" transform="translate(-398.99 -284.45)"/><circle class="cls-1" cx="121.95" cy="99.54" r="12.74"/></svg>